<svg width="158" height="33" viewBox="0 0 158 33" fill="none" xmlns="http://www.w3.org/2000/svg">
<path d="M3.50001 18.5591L3.45099 14.992H4.03922L12.2745 6.63634H15.853L7.07846 15.4807H6.83333L3.50001 18.5591ZM0.803925 25.4V0.381775H3.69607V25.4H0.803925ZM12.7647 25.4L5.41174 16.1159L7.47058 14.1125L16.4412 25.4H12.7647ZM19.5754 25.4V6.63634H22.3695V9.56819H22.6146C23.0067 8.56645 23.6399 7.78869 24.5141 7.2349C25.3883 6.673 26.4381 6.39205 27.6636 6.39205C28.9054 6.39205 29.9389 6.673 30.7641 7.2349C31.5974 7.78869 32.2469 8.56645 32.7126 9.56819H32.9087C33.3907 8.59902 34.1138 7.82943 35.0778 7.25936C36.0419 6.68111 37.1979 6.39205 38.546 6.39205C40.229 6.39205 41.6056 6.91729 42.6759 7.96789C43.7462 9.01032 44.2813 10.635 44.2813 12.842V25.4H41.3891V12.842C41.3891 11.4576 41.0092 10.4681 40.2494 9.87354C39.4896 9.27907 38.595 8.98177 37.5656 8.98177C36.242 8.98177 35.2167 9.38087 34.4896 10.1789C33.7625 10.9689 33.3989 11.9707 33.3989 13.1841V25.4H30.4577V12.5488C30.4577 11.482 30.1105 10.6228 29.4161 9.97131C28.7216 9.31164 27.827 8.98177 26.7322 8.98177C25.9806 8.98177 25.278 9.18135 24.6244 9.58039C23.979 9.97943 23.4561 10.5332 23.0557 11.2417C22.6636 11.9421 22.4675 12.7524 22.4675 13.6727V25.4H19.5754ZM52.4613 0.381775V25.4H49.5693V0.381775H52.4613Z" fill="#AB47BC"/>
<path d="M93.598 32.8273C92.2009 32.8273 91.0001 32.6481 89.995 32.2898C88.9904 31.9396 88.153 31.4754 87.4828 30.8972C86.8212 30.3271 86.2944 29.7163 85.9018 29.0648L88.2059 27.4523C88.4674 27.7943 88.7979 28.1852 89.1986 28.625C89.5987 29.0729 90.146 29.4597 90.8405 29.7855C91.5431 30.1194 92.4625 30.2864 93.598 30.2864C95.1176 30.2864 96.3718 29.9199 97.3602 29.187C98.3491 28.454 98.843 27.3057 98.843 25.7421V21.9307H98.5982C98.3857 22.2727 98.0832 22.6962 97.6912 23.2011C97.3073 23.6979 96.7514 24.1418 96.0245 24.5327C95.3057 24.9154 94.3335 25.1068 93.1079 25.1068C91.5884 25.1068 90.2236 24.7485 89.0147 24.0318C87.8139 23.3151 86.8622 22.2727 86.1596 20.9046C85.4651 19.5364 85.1178 17.875 85.1178 15.9204C85.1178 13.9985 85.457 12.3249 86.1348 10.8997C86.8131 9.4664 87.7567 8.35883 88.9656 7.57698C90.1751 6.78701 91.5717 6.39206 93.157 6.39206C94.3826 6.39206 95.3548 6.59566 96.0736 7.00282C96.8004 7.40191 97.3564 7.85793 97.7403 8.37103C98.1323 8.87595 98.4348 9.29128 98.6473 9.61706H98.9411V6.63635H101.735V25.9375C101.735 27.55 101.368 28.8612 100.632 29.871C99.9053 30.889 98.925 31.6342 97.6912 32.1065C96.4656 32.587 95.1014 32.8273 93.598 32.8273ZM93.4999 22.5171C94.6603 22.5171 95.6406 22.2523 96.4413 21.723C97.2421 21.1936 97.8503 20.4322 98.2671 19.4386C98.6839 18.4451 98.8921 17.2561 98.8921 15.8716C98.8921 14.5197 98.6877 13.3266 98.2795 12.2923C97.8708 11.258 97.2663 10.4477 96.4656 9.86135C95.6649 9.27499 94.6765 8.98179 93.4999 8.98179C92.2743 8.98179 91.2535 9.29128 90.4361 9.91021C89.6273 10.5291 89.019 11.3598 88.6103 12.4023C88.2102 13.4447 88.0096 14.6011 88.0096 15.8716C88.0096 17.1746 88.214 18.327 88.6227 19.3287C89.039 20.3222 89.6521 21.1041 90.4609 21.6742C91.2778 22.2361 92.291 22.5171 93.4999 22.5171ZM114.627 32.8273C113.23 32.8273 112.03 32.6481 111.024 32.2898C110.02 31.9396 109.182 31.4754 108.512 30.8972C107.851 30.3271 107.324 29.7163 106.931 29.0648L109.235 27.4523C109.497 27.7943 109.827 28.1852 110.228 28.625C110.628 29.0729 111.175 29.4597 111.87 29.7855C112.573 30.1194 113.492 30.2864 114.627 30.2864C116.147 30.2864 117.401 29.9199 118.39 29.187C119.378 28.454 119.872 27.3057 119.872 25.7421V21.9307H119.628C119.415 22.2727 119.113 22.6962 118.721 23.2011C118.337 23.6979 117.781 24.1418 117.054 24.5327C116.335 24.9154 115.363 25.1068 114.137 25.1068C112.618 25.1068 111.253 24.7485 110.044 24.0318C108.843 23.3151 107.892 22.2727 107.189 20.9046C106.494 19.5364 106.147 17.875 106.147 15.9204C106.147 13.9985 106.486 12.3249 107.164 10.8997C107.843 9.4664 108.786 8.35883 109.995 7.57698C111.205 6.78701 112.601 6.39206 114.186 6.39206C115.412 6.39206 116.384 6.59566 117.103 7.00282C117.83 7.40191 118.386 7.85793 118.77 8.37103C119.162 8.87595 119.464 9.29128 119.677 9.61706H119.971V6.63635H122.765V25.9375C122.765 27.55 122.397 28.8612 121.662 29.871C120.935 30.889 119.954 31.6342 118.721 32.1065C117.495 32.587 116.131 32.8273 114.627 32.8273ZM114.529 22.5171C115.69 22.5171 116.67 22.2523 117.471 21.723C118.271 21.1936 118.88 20.4322 119.297 19.4386C119.713 18.4451 119.921 17.2561 119.921 15.8716C119.921 14.5197 119.717 13.3266 119.309 12.2923C118.9 11.258 118.296 10.4477 117.495 9.86135C116.694 9.27499 115.706 8.98179 114.529 8.98179C113.304 8.98179 112.283 9.29128 111.465 9.91021C110.657 10.5291 110.048 11.3598 109.64 12.4023C109.24 13.4447 109.039 14.6011 109.039 15.8716C109.039 17.1746 109.243 18.327 109.652 19.3287C110.068 20.3222 110.681 21.1041 111.49 21.6742C112.307 22.2361 113.32 22.5171 114.529 22.5171ZM135.951 25.7909C134.137 25.7909 132.573 25.3918 131.257 24.5937C129.95 23.7875 128.941 22.6636 128.23 21.2222C127.528 19.7725 127.177 18.0867 127.177 16.1648C127.177 14.2428 127.528 12.5489 128.23 11.0829C128.941 9.60889 129.93 8.46057 131.196 7.63804C132.471 6.80739 133.957 6.39206 135.657 6.39206C136.637 6.39206 137.606 6.55492 138.561 6.8807C139.517 7.20643 140.387 7.73581 141.171 8.46874C141.956 9.19356 142.581 10.1546 143.047 11.3517C143.512 12.5489 143.745 14.0229 143.745 15.7739V16.9954H129.235V14.5034H140.804C140.804 13.4447 140.592 12.5 140.167 11.6693C139.75 10.8386 139.154 10.183 138.377 9.70258C137.609 9.22205 136.702 8.98179 135.657 8.98179C134.505 8.98179 133.508 9.26683 132.667 9.83695C131.833 10.3989 131.192 11.1318 130.742 12.0358C130.293 12.9398 130.068 13.9089 130.068 14.9432V16.6046C130.068 18.0216 130.314 19.2228 130.804 20.2082C131.302 21.1855 131.993 21.9307 132.875 22.4437C133.757 22.9487 134.783 23.2011 135.951 23.2011C136.711 23.2011 137.397 23.0952 138.01 22.8835C138.631 22.6636 139.166 22.3379 139.615 21.9062C140.064 21.4665 140.412 20.9208 140.657 20.2693L143.451 21.0511C143.157 21.9958 142.662 22.8265 141.968 23.5432C141.274 24.2517 140.416 24.8055 139.395 25.2046C138.373 25.5954 137.225 25.7909 135.951 25.7909ZM148.145 25.4V6.63635H150.939V9.47043H151.135C151.478 8.54206 152.099 7.7887 152.998 7.21051C153.896 6.63227 154.91 6.3432 156.037 6.3432C156.249 6.3432 156.515 6.34723 156.833 6.3554C157.152 6.36352 157.393 6.37577 157.557 6.39206V9.32385C157.458 9.29945 157.234 9.26279 156.883 9.21393C156.539 9.1569 156.176 9.12842 155.792 9.12842C154.877 9.12842 154.06 9.31977 153.34 9.70258C152.63 10.0772 152.066 10.5984 151.649 11.2662C151.241 11.9258 151.037 12.6791 151.037 13.5261V25.4H148.145Z" fill="#AB47BC"/>
<path d="M69.3333 24.8625C74.9915 24.8625 79.5784 20.2902 79.5784 14.65C79.5784 9.00979 74.9915 4.4375 69.3333 4.4375C63.6751 4.4375 59.0882 9.00979 59.0882 14.65C59.0882 20.2902 63.6751 24.8625 69.3333 24.8625Z" stroke="#AB47BC" stroke-width="2"/>
<path fill-rule="evenodd" clip-rule="evenodd" d="M69.2568 21.588C73.0588 21.588 76.1404 18.5159 76.1404 14.7262C76.1404 10.9366 73.0588 7.86456 69.2568 7.86456C65.4553 7.86456 62.3731 10.9366 62.3731 14.7262C62.3731 18.5159 65.4553 21.588 69.2568 21.588ZM66.5035 14.7263C68.0241 14.7263 69.2568 13.4974 69.2568 11.9816C69.2568 10.4657 68.0241 9.23691 66.5035 9.23691C64.9829 9.23691 63.7498 10.4657 63.7498 11.9816C63.7498 13.4974 64.9829 14.7263 66.5035 14.7263Z" fill="#AB47BC"/>
<mask id="mask0_2079_11" style="mask-type:luminance" maskUnits="userSpaceOnUse" x="62" y="7" width="15" height="15">
<path fill-rule="evenodd" clip-rule="evenodd" d="M69.2568 21.588C73.0588 21.588 76.1404 18.5159 76.1404 14.7262C76.1404 10.9366 73.0588 7.86456 69.2568 7.86456C65.4553 7.86456 62.3731 10.9366 62.3731 14.7262C62.3731 18.5159 65.4553 21.588 69.2568 21.588ZM66.5035 14.7263C68.0241 14.7263 69.2568 13.4974 69.2568 11.9816C69.2568 10.4657 68.0241 9.23691 66.5035 9.23691C64.9829 9.23691 63.7498 10.4657 63.7498 11.9816C63.7498 13.4974 64.9829 14.7263 66.5035 14.7263Z" fill="white"/>
</mask>
<g mask="url(#mask0_2079_11)">
<path d="M75.6012 14.7263C75.6012 18.219 72.7606 21.0505 69.2568 21.0505V22.1255C73.3564 22.1255 76.6796 18.8128 76.6796 14.7263H75.6012ZM69.2568 8.40209C72.7606 8.40209 75.6012 11.2335 75.6012 14.7263H76.6796C76.6796 10.6398 73.3564 7.32709 69.2568 7.32709V8.40209ZM62.9124 14.7263C62.9124 11.2335 65.7529 8.40209 69.2568 8.40209V7.32709C65.1571 7.32709 61.8339 10.6398 61.8339 14.7263H62.9124ZM69.2568 21.0505C65.7529 21.0505 62.9124 18.219 62.9124 14.7263H61.8339C61.8339 18.8128 65.1571 22.1255 69.2568 22.1255V21.0505ZM68.7176 11.9816C68.7176 13.2006 67.7265 14.1888 66.5035 14.1888V15.2638C68.3218 15.2638 69.796 13.7943 69.796 11.9816H68.7176ZM66.5035 9.77443C67.7265 9.77443 68.7176 10.7626 68.7176 11.9816H69.796C69.796 10.1689 68.3218 8.69943 66.5035 8.69943V9.77443ZM64.289 11.9816C64.289 10.7626 65.2806 9.77443 66.5035 9.77443V8.69943C64.6848 8.69943 63.2105 10.1689 63.2105 11.9816H64.289ZM66.5035 14.1888C65.2806 14.1888 64.289 13.2006 64.289 11.9816H63.2105C63.2105 13.7943 64.6848 15.2638 66.5035 15.2638V14.1888Z" fill="#AB47BC"/>
</g>
</svg>
