<svg width="59" height="59" viewBox="0 0 59 59" fill="none" xmlns="http://www.w3.org/2000/svg">
<g clip-path="url(#clip0_2016_183)">
<path d="M29.6131 56.695C44.6325 56.6326 56.7576 44.4063 56.6951 29.3869C56.6327 14.3675 44.4064 2.24244 29.387 2.30489C14.3675 2.36734 2.24252 14.5936 2.30497 29.613C2.36742 44.6325 14.5937 56.7575 29.6131 56.695Z" stroke="#AB47BC" stroke-width="3"/>
<path fill-rule="evenodd" clip-rule="evenodd" d="M29.3005 47.6467C39.2125 47.6467 47.2479 39.6114 47.2479 29.6994C47.2479 19.7875 39.2125 11.7523 29.3005 11.7523C19.3886 11.7523 11.3534 19.7875 11.3534 29.6994C11.3534 39.6114 19.3886 47.6467 29.3005 47.6467ZM22.1217 29.6994C26.0865 29.6994 29.3005 26.4853 29.3005 22.5205C29.3005 18.5558 26.0865 15.3417 22.1217 15.3417C18.1569 15.3417 14.9429 18.5558 14.9429 22.5205C14.9429 26.4853 18.1569 29.6994 22.1217 29.6994Z" fill="#AB47BC"/>
<mask id="mask0_2016_183" style="mask-type:luminance" maskUnits="userSpaceOnUse" x="11" y="11" width="37" height="37">
<path fill-rule="evenodd" clip-rule="evenodd" d="M29.3005 47.6467C39.2125 47.6467 47.2479 39.6114 47.2479 29.6994C47.2479 19.7875 39.2125 11.7523 29.3005 11.7523C19.3886 11.7523 11.3534 19.7875 11.3534 29.6994C11.3534 39.6114 19.3886 47.6467 29.3005 47.6467ZM22.1217 29.6994C26.0865 29.6994 29.3005 26.4853 29.3005 22.5205C29.3005 18.5558 26.0865 15.3417 22.1217 15.3417C18.1569 15.3417 14.9429 18.5558 14.9429 22.5205C14.9429 26.4853 18.1569 29.6994 22.1217 29.6994Z" fill="white"/>
</mask>
<g mask="url(#mask0_2016_183)">
<path d="M46.7869 29.6994C46.7869 39.3568 38.9579 47.1857 29.3005 47.1857V48.1076C39.467 48.1076 47.7088 39.8659 47.7088 29.6994H46.7869ZM29.3005 12.2132C38.9579 12.2132 46.7869 20.042 46.7869 29.6994H47.7088C47.7088 19.5329 39.467 11.2913 29.3005 11.2913V12.2132ZM11.8143 29.6994C11.8143 20.042 19.6432 12.2132 29.3005 12.2132V11.2913C19.1341 11.2913 10.8925 19.5329 10.8925 29.6994H11.8143ZM29.3005 47.1857C19.6432 47.1857 11.8143 39.3568 11.8143 29.6994H10.8925C10.8925 39.8659 19.1341 48.1076 29.3005 48.1076V47.1857ZM28.8396 22.5205C28.8396 26.2308 25.8319 29.2385 22.1217 29.2385V30.1604C26.341 30.1604 29.7615 26.7399 29.7615 22.5205H28.8396ZM22.1217 15.8027C25.8319 15.8027 28.8396 18.8104 28.8396 22.5205H29.7615C29.7615 18.3012 26.341 14.8808 22.1217 14.8808V15.8027ZM15.4038 22.5205C15.4038 18.8104 18.4115 15.8027 22.1217 15.8027V14.8808C17.9023 14.8808 14.4819 18.3012 14.4819 22.5205H15.4038ZM22.1217 29.2385C18.4115 29.2385 15.4038 26.2308 15.4038 22.5205H14.4819C14.4819 26.7399 17.9023 30.1604 22.1217 30.1604V29.2385Z" fill="#AB47BC"/>
</g>
</g>
<defs>
<clipPath id="clip0_2016_183">
<rect width="59" height="59" fill="white"/>
</clipPath>
</defs>
</svg>
